,
  Hottest scene tracker on the net !!!   http://www.scenetime.com
 
         Please seed back after your download is completed

           Credit goes  to all seeders and  http://www.scenetime.com
 



...................................NFO:.................................................[IMG]http://leetleech.org/images/97106159855709685406.png[/IMG]


[b]Vampires Suck 2010 DVDRiP XViD AC3-LEGi0N


[img]http://leetleech.org/images/48874973695367351744.png[/img]

[color=red]General[/color]
Format: AVI
File size:  1.37 GiB  
Duration:   1h 22mn  
Overall bit rate:   2 383 Kbps 
IMDb Rating:   3.3/10  ( 8 907 votes)
Genre:        |Comdey|
Release:  18 August 2010 (USA) 
iMDB Link: http://www.imdb.com/title/tt1666186/
ViDEO Link: http://www.imdb.com/title/tt1666186/
Source:     (DVDR-BOW  Thanks!!)
Encoded By : Killerhz   



[color=red]Video[/color]
Format: MPEG-4 Visual
Format profile : Advanced Simple@L5
Format settings, QPel: No
Format settings, GMC: No warppoints
Format settings, Matrix: Default (MPEG)
Muxing mode: Packed bitstream
Codec ID: XVID
Bit rate: 1 929 Kbps
Width:  720 pixels
Height: 400 pixels
Display aspect ratio: 16:9 
Frame rate: 23.976 fps
Chroma subsampling: 4:2:0
Bit depth: 24 bits
Scan type: Progressive
Bits/(Pixel*Frame): 0.279
Stream size: 1.11 GiB (81%)


[color=red]Audio[/color]
Format: AC3
Bit rate mode: Constant
Bit rate:  448 Kbps
Channel(s): 6 channels
Sampling rate: 48.0 KHz
Stream size: 263 MiB (19%)




[img]http://leetleech.org/images/89524873606771859129.png[/img]
A spoof of vampire-themed movies, where teenager Becca finds herself torn between two boys. As she and her friends wrestle with a number of different dramas, everything comes to a head at their prom. 


[color=red]Tagline:[/color]
N/A



[img]http://leetleech.org/images/84434050717770922575.png[/img]
Jenn Proske ... Becca Crane
Matt Lanter ... Edward Sullen
Diedrich Bader ... Frank Crane
Chris Riggi ... Jacob White (as Christopher N. Riggi)
Ken Jeong ... Daro
Anneliese van der Pol ... Jennifer
Mike Mayhall ... Nicholas
Rett Terrell ... Max
Stephanie Fischer ... Rosalyn
Nick Eversman 	... Jeremiah 



[color=red]GREETZ[/color]

Noir | Joshua08 | xXTHORNXx | BMB |

HiTM4N | HiVE-CM8 | bigimac | iNK |

Lungbuster | skillz | ELEKTRI4KA | 

FLAWL3SS | IMAGiNE |  THC | CRYS | CLASSiFiED | 

AND ALL AFFILIATED SITES   


[color=red]SAMPLE INCLUDED![/color][/b]


[img]http://leetleech.org/images/95521316153253938506.png[/img]

[img]http://leetleech.org/images/79227047491134655618.png[/img]
[img]http://leetleech.org/images/04051531326619567227.png[/img]
[img]http://leetleech.org/images/79339239204782829593.png[/img]
[img]http://leetleech.org/images/96511883516601949333.png[/img]
[img]http://leetleech.org/images/79227047491134655618.png[/img]
[img]http://leetleech.org/images/12755021538703799215.png[/img]